<svg id="visual" viewBox="0 0 900 600" width="900" height="600" xmlns="http://www.w3.org/2000/svg" xmlns:xlink="http://www.w3.org/1999/xlink" version="1.1"><rect x="0" y="0" width="900" height="600" fill="#001220"></rect><defs><linearGradient id="grad1_0" x1="33.3%" y1="0%" x2="100%" y2="100%"><stop offset="20%" stop-color="#001220" stop-opacity="1"></stop><stop offset="80%" stop-color="#001220" stop-opacity="1"></stop></linearGradient></defs><defs><linearGradient id="grad2_0" x1="0%" y1="0%" x2="66.7%" y2="100%"><stop offset="20%" stop-color="#001220" stop-opacity="1"></stop><stop offset="80%" stop-color="#001220" stop-opacity="1"></stop></linearGradient></defs><g transform="translate(900, 0)"><path d="M0 324.5C-36.5 309.1 -73.1 293.8 -116.7 281.8C-160.4 269.8 -211.2 261.1 -229.5 229.5C-247.7 197.8 -233.5 143.1 -243.9 101C-254.3 59 -289.4 29.5 -324.5 0L0 0Z" fill="#FBAE3C"></path></g><g transform="translate(0, 600)"><path d="M0 -324.5C43.4 -320.6 86.9 -316.6 124.2 -299.8C161.5 -283 192.7 -253.3 222.7 -222.7C252.8 -192.2 281.6 -160.9 298.4 -123.6C315.2 -86.3 319.8 -43.2 324.5 0L0 0Z" fill="#FBAE3C"></path></g></svg>